<mxfile host="app.diagrams.net" modified="2024-07-25T07:06:54.232Z" agent="Mozilla/5.0 (Macintosh; Intel Mac OS X 10_15_7) AppleWebKit/537.36 (KHTML, like Gecko) Chrome/126.0.0.0 Safari/537.36" etag="sFAhvnZZk2eFqUq-1t9f" version="24.7.1" type="device">
  <diagram name="第 1 页" id="m3S4oNBgZnOTqmlzrnZq">
    <mxGraphModel dx="2049" dy="1031" grid="1" gridSize="10" guides="1" tooltips="1" connect="1" arrows="1" fold="1" page="1" pageScale="1" pageWidth="827" pageHeight="1169" math="0" shadow="0">
      <root>
        <mxCell id="0" />
        <mxCell id="1" parent="0" />
        <mxCell id="5rNavs0vH2RF67EcSQ7j-1" value="1" style="rounded=0;whiteSpace=wrap;html=1;fillColor=#dae8fc;strokeColor=#6c8ebf;fontSize=19;fontStyle=1" vertex="1" parent="1">
          <mxGeometry x="240" y="440" width="40" height="40" as="geometry" />
        </mxCell>
        <mxCell id="5rNavs0vH2RF67EcSQ7j-20" style="rounded=0;orthogonalLoop=1;jettySize=auto;html=1;exitX=0.5;exitY=0;exitDx=0;exitDy=0;entryX=0.5;entryY=1;entryDx=0;entryDy=0;dashed=1;strokeWidth=3;" edge="1" parent="1" source="5rNavs0vH2RF67EcSQ7j-3" target="5rNavs0vH2RF67EcSQ7j-11">
          <mxGeometry relative="1" as="geometry" />
        </mxCell>
        <mxCell id="5rNavs0vH2RF67EcSQ7j-3" value="2" style="rounded=0;whiteSpace=wrap;html=1;fillColor=#dae8fc;strokeColor=#6c8ebf;fontSize=19;fontStyle=1" vertex="1" parent="1">
          <mxGeometry x="520" y="400" width="40" height="40" as="geometry" />
        </mxCell>
        <mxCell id="5rNavs0vH2RF67EcSQ7j-19" style="rounded=0;orthogonalLoop=1;jettySize=auto;html=1;exitX=0;exitY=0;exitDx=0;exitDy=0;dashed=1;strokeWidth=3;" edge="1" parent="1" source="5rNavs0vH2RF67EcSQ7j-4" target="5rNavs0vH2RF67EcSQ7j-3">
          <mxGeometry relative="1" as="geometry" />
        </mxCell>
        <mxCell id="5rNavs0vH2RF67EcSQ7j-4" value="3" style="rounded=0;whiteSpace=wrap;html=1;fillColor=#dae8fc;strokeColor=#6c8ebf;fontSize=19;fontStyle=1" vertex="1" parent="1">
          <mxGeometry x="640" y="600" width="40" height="40" as="geometry" />
        </mxCell>
        <mxCell id="5rNavs0vH2RF67EcSQ7j-14" style="rounded=0;orthogonalLoop=1;jettySize=auto;html=1;exitX=1;exitY=0;exitDx=0;exitDy=0;entryX=0;entryY=1;entryDx=0;entryDy=0;strokeWidth=2;" edge="1" parent="1" source="5rNavs0vH2RF67EcSQ7j-5" target="5rNavs0vH2RF67EcSQ7j-9">
          <mxGeometry relative="1" as="geometry" />
        </mxCell>
        <mxCell id="5rNavs0vH2RF67EcSQ7j-5" value="1" style="ellipse;whiteSpace=wrap;html=1;aspect=fixed;fillColor=#e1d5e7;strokeColor=#9673a6;fontSize=14;" vertex="1" parent="1">
          <mxGeometry x="150" y="370" width="20" height="20" as="geometry" />
        </mxCell>
        <mxCell id="5rNavs0vH2RF67EcSQ7j-23" style="rounded=0;orthogonalLoop=1;jettySize=auto;html=1;exitX=1;exitY=0.5;exitDx=0;exitDy=0;entryX=0;entryY=0.25;entryDx=0;entryDy=0;strokeWidth=2;" edge="1" parent="1" source="5rNavs0vH2RF67EcSQ7j-9" target="5rNavs0vH2RF67EcSQ7j-21">
          <mxGeometry relative="1" as="geometry" />
        </mxCell>
        <mxCell id="5rNavs0vH2RF67EcSQ7j-9" value="1" style="ellipse;whiteSpace=wrap;html=1;aspect=fixed;fillColor=#e1d5e7;strokeColor=#9673a6;fontSize=14;" vertex="1" parent="1">
          <mxGeometry x="360" y="310" width="20" height="20" as="geometry" />
        </mxCell>
        <mxCell id="5rNavs0vH2RF67EcSQ7j-10" value="2" style="ellipse;whiteSpace=wrap;html=1;aspect=fixed;fillColor=#e1d5e7;strokeColor=#9673a6;fontSize=14;" vertex="1" parent="1">
          <mxGeometry x="404" y="120" width="20" height="20" as="geometry" />
        </mxCell>
        <mxCell id="5rNavs0vH2RF67EcSQ7j-22" style="rounded=0;orthogonalLoop=1;jettySize=auto;html=1;exitX=0.5;exitY=0;exitDx=0;exitDy=0;entryX=0;entryY=0.75;entryDx=0;entryDy=0;dashed=1;strokeWidth=3;" edge="1" parent="1" source="5rNavs0vH2RF67EcSQ7j-11" target="5rNavs0vH2RF67EcSQ7j-21">
          <mxGeometry relative="1" as="geometry" />
        </mxCell>
        <mxCell id="5rNavs0vH2RF67EcSQ7j-11" value="3" style="ellipse;whiteSpace=wrap;html=1;aspect=fixed;fillColor=#e1d5e7;strokeColor=#9673a6;fontSize=14;" vertex="1" parent="1">
          <mxGeometry x="560" y="350" width="20" height="20" as="geometry" />
        </mxCell>
        <mxCell id="5rNavs0vH2RF67EcSQ7j-12" value="2" style="ellipse;whiteSpace=wrap;html=1;aspect=fixed;fillColor=#e1d5e7;strokeColor=#9673a6;fontSize=14;" vertex="1" parent="1">
          <mxGeometry x="580" y="160" width="20" height="20" as="geometry" />
        </mxCell>
        <mxCell id="5rNavs0vH2RF67EcSQ7j-13" value="" style="endArrow=classic;html=1;rounded=0;exitX=0.5;exitY=0;exitDx=0;exitDy=0;entryX=1;entryY=1;entryDx=0;entryDy=0;strokeWidth=2;" edge="1" parent="1" source="5rNavs0vH2RF67EcSQ7j-1" target="5rNavs0vH2RF67EcSQ7j-5">
          <mxGeometry width="50" height="50" relative="1" as="geometry">
            <mxPoint x="460" y="350" as="sourcePoint" />
            <mxPoint x="510" y="300" as="targetPoint" />
          </mxGeometry>
        </mxCell>
        <mxCell id="5rNavs0vH2RF67EcSQ7j-18" style="rounded=0;orthogonalLoop=1;jettySize=auto;html=1;exitX=0.5;exitY=1;exitDx=0;exitDy=0;entryX=0.5;entryY=0;entryDx=0;entryDy=0;dashed=1;strokeWidth=3;" edge="1" parent="1" source="5rNavs0vH2RF67EcSQ7j-17" target="5rNavs0vH2RF67EcSQ7j-4">
          <mxGeometry relative="1" as="geometry" />
        </mxCell>
        <mxCell id="5rNavs0vH2RF67EcSQ7j-17" value="" style="ellipse;whiteSpace=wrap;html=1;fillColor=#ffe6cc;strokeColor=#d79b00;" vertex="1" parent="1">
          <mxGeometry x="720" y="340" width="90" height="60" as="geometry" />
        </mxCell>
        <mxCell id="5rNavs0vH2RF67EcSQ7j-24" style="rounded=0;orthogonalLoop=1;jettySize=auto;html=1;exitX=0.5;exitY=0;exitDx=0;exitDy=0;entryX=1;entryY=1;entryDx=0;entryDy=0;strokeWidth=2;" edge="1" parent="1" source="5rNavs0vH2RF67EcSQ7j-21" target="5rNavs0vH2RF67EcSQ7j-10">
          <mxGeometry relative="1" as="geometry" />
        </mxCell>
        <mxCell id="5rNavs0vH2RF67EcSQ7j-25" style="rounded=0;orthogonalLoop=1;jettySize=auto;html=1;exitX=0.5;exitY=1;exitDx=0;exitDy=0;entryX=0;entryY=1;entryDx=0;entryDy=0;dashed=1;strokeWidth=3;" edge="1" parent="1" source="5rNavs0vH2RF67EcSQ7j-21" target="5rNavs0vH2RF67EcSQ7j-12">
          <mxGeometry relative="1" as="geometry" />
        </mxCell>
        <mxCell id="5rNavs0vH2RF67EcSQ7j-21" value="" style="triangle;whiteSpace=wrap;html=1;rotation=-90;fillColor=#f8cecc;strokeColor=#b85450;" vertex="1" parent="1">
          <mxGeometry x="460" y="250" width="30" height="40" as="geometry" />
        </mxCell>
      </root>
    </mxGraphModel>
  </diagram>
</mxfile>
